<?xml version="1.0" encoding="utf-8"?>
<!-- Generator: Adobe Illustrator 25.0.0, SVG Export Plug-In . SVG Version: 6.00 Build 0)  -->
<svg version="1.1" id="Layer_1" xmlns="http://www.w3.org/2000/svg" xmlns:xlink="http://www.w3.org/1999/xlink" x="0px" y="0px"
	 viewBox="0 0 1108 604.25" style="enable-background:new 0 0 1108 604.25;" xml:space="preserve">
<style type="text/css">
	.Arched_x0020_Green{fill:url(#SVGID_1_);stroke:#FFFFFF;stroke-width:0.25;stroke-miterlimit:1;}
	.st0{fill-rule:evenodd;clip-rule:evenodd;fill:#FFFFFF;}
	.st1{fill-rule:evenodd;clip-rule:evenodd;fill:#ED1C24;}
	.st2{fill-rule:evenodd;clip-rule:evenodd;fill:#0E73BA;}
</style>
<linearGradient id="SVGID_1_" gradientUnits="userSpaceOnUse" x1="-699" y1="1761.7285" x2="-698.2929" y2="1761.0214">
	<stop  offset="0" style="stop-color:#20AC4B"/>
	<stop  offset="0.9831" style="stop-color:#19361A"/>
</linearGradient>
<g>
	<g>
		<g>
			<path class="st0" d="M1038.95,258.73c-15.52-37.97-53.41-70.73-91.8-91.79c-119.64-65.64-279.2-92.01-465.31-83.35
				c-109.97,5.12-217.5,27.99-299.65,67.53c-38.71,18.63-80.13,42.67-106.57,77.02c-30.41,39.53-34.08,93.38-3.17,136.11
				c31.58,43.64,90.74,75.29,144.55,96.02c117.98,45.44,268.22,62.36,428.38,49.59c72.64-5.79,149.45-22.28,201.53-39.04
				c65.6-21.11,147.23-57.24,182.54-113.95C1045.97,330.32,1052.73,292.47,1038.95,258.73z"/>
		</g>
		<g>
			<path class="st1" d="M381.61,285.11c13.68,6.98,27.34,14.39,28.49,33.76c2.5,41.97-40.83,97.14-77.02,102.35
				c-20.93,3.01-32.99-4.91-35.87-22.16c5.82-7.54,16.35-10.38,26.38-13.72c3.06,5.38,0.9,15.98,6.33,18.99
				c46.52,6.42,80.85-102.16,12.66-99.18c1.1-11.77,11.45-11.93,17.94-15.83c16.44-9.88,40.23-32.22,34.82-62.25
				c-4.18-23.21-30.55-29.68-53.81-27.43c-43.6,4.22-87.82,38.83-105.51,73.86c-5.37,10.63-15.27,41.99,5.28,44.32
				c8.1,0.92,16.04-5.68,21.1-9.5c4.83-3.64,12.24-13.6,16.88-7.39c10.85,14.53-81.62,72.01-75.97,9.5
				c2.97-32.89,32.08-63.53,59.09-85.47c29.87-24.26,60.28-42.19,98.13-45.37c34.03-2.86,61.94,7.25,63.31,35.87
				C425.44,249.67,403.84,267.68,381.61,285.11z"/>
			<path class="st1" d="M629.56,285.11c68.97,25.84-6.92,146.78-65.42,136.11c-6.43-1.17-21.3-12.33-18.99-22.16
				c2.05-8.72,17.67-9.15,26.38-13.72c2.9,6.36,0.32,14.35,6.33,18.99c44.58,7.72,82.22-103.35,12.66-99.18
				c-0.3-9.37,8.36-10.82,13.72-13.72c16.9-9.12,46.95-35.46,37.98-67.53c-5.59-19.98-29.71-26.5-52.75-24.27
				c-41.59,4.03-81.66,34.86-101.29,67.53c-5.88,9.78-23.7,47.63,1.06,50.65c8.45,1.03,15.98-5.57,21.1-9.5
				c4.81-3.69,12.29-13.59,16.88-7.39c9.8,13.23-67.88,64.54-75.97,21.1c-3.23-17.33,8.93-41.44,18.99-55.92
				c27.92-40.17,84.16-81.76,138.22-86.52c34.71-3.05,61.13,6.74,63.3,34.82C674.29,246.87,649.84,271,629.56,285.11z"/>
			<path class="st1" d="M929.21,186.98c4.44,9.86-6.19,13.19-11.6,15.83c-6.14,2.99-14.5,6.53-22.16,7.39
				c-5.19,0.58-13.62-1.37-18.99,0c-18.58,4.73-25.94,37.38-27.43,60.14c11.04-2.28,28.84-14.76,46.43-7.39
				c-3.7,12.83-4.92,28.15-20.05,29.54c-3.89-2.08-2.23-9.73-6.33-11.61c-8.21-0.82-13.82,0.96-18.99,3.17
				c2.48,43.05-11.62,73.69-34.82,97.07c-22.41,22.58-58.75,46.34-105.51,41.15c-40.65-4.51-41.35-48.97-18.99-77.02
				c17.1-21.46,47.32-40.31,77.02-40.09c14.05,0.1,27.52,6.87,28.49,20.05c1.98,27.11-37.33,52.71-71.75,50.65
				c1.18-3.39,2.89-6.26,3.16-10.55c17.13-3.47,43.28-10.31,41.15-31.65c-0.77-7.72-8.26-12.61-21.1-11.61
				c-22.04,1.72-55.89,31.08-46.43,63.31c3.92,13.36,19.49,21.36,36.93,21.1c27.36-0.41,48.09-15.17,62.25-30.6
				c16.16-17.6,22.08-41.42,20.05-71.75c-7.05-0.05-11.89,21.73-21.1,10.55c0.49-10.85,13.79-17.81,21.1-25.32
				c1.42-40.79,18.5-65.91,44.31-82.3c-23.77-3.93-52.21-9.08-74.92,5.28c-10.49,6.63-27.42,23.1-23.21,39.04
				c1.15,4.34,6.04,7.92,9.5,8.44c18.32,2.74,13.17-17.8,32.71-15.83c-5.26,19.82-22.02,45.96-49.59,40.09
				c-31.01-6.6-7.53-53.97,3.17-65.42c20.91-22.39,55.84-39.75,101.29-36.93C887.21,183.16,911.04,195.85,929.21,186.98z"/>
			<path class="st1" d="M622.17,214.41c4.8,6.18-3.81,9.48-6.33,12.66c-9.67,12.19-16.34,26.55-21.1,45.37
				c-5.85,23.13-8.41,48.66-17.94,70.69c-17.92,41.45-52.91,76.78-98.13,79.13c-30.56,1.59-51.17-15.16-41.15-49.59
				c7.71-6.35,20.67-7.47,31.65-10.55c-0.65,13.47-11.23,15.36-10.55,28.49c0.63,12.14,11.87,19.12,29.54,16.88
				c33.22-4.2,54.18-39.42,64.36-75.97c10.04-36.03,20.86-72.73,42.2-97.07c8.73-9.96,17.94-14.94,25.32-22.16
				C621.21,212.57,620.78,214.4,622.17,214.41z"/>
			<path class="st1" d="M371.05,213.36c0.7,0,1.41,0,2.11,0c4.8,8.44-7.02,17.39-12.66,26.38c-16.87,26.86-16.49,68.76-30.6,102.35
				c-17.43,41.51-52.97,76.63-98.13,80.19c-31.68,2.5-51.08-14.36-43.26-50.65c9.98-4.09,21.07-7.07,32.71-9.5
				c-0.62,13.48-11.32,15.31-10.55,28.49c0.66,11.32,10.36,19.02,28.49,16.88c18.89-2.23,36.25-16.98,47.48-32.71
				c14.87-20.81,18.44-48.13,26.38-75.97C323.79,261.08,343.31,234.31,371.05,213.36z"/>
			<path class="st2" d="M846.91,470.81c-52.08,16.76-128.89,33.25-201.53,39.04c-160.16,12.77-310.4-4.15-428.38-49.59
				c-53.81-20.73-112.98-52.38-144.55-96.02c-30.92-42.73-27.25-96.58,3.17-136.11c26.43-34.36,67.86-58.4,106.57-77.02
				c82.16-39.53,189.69-62.41,299.65-67.53c186.11-8.66,345.67,17.72,465.31,83.36c38.39,21.06,76.28,53.83,91.8,91.79
				c13.79,33.74,7.03,71.59-9.5,98.13C994.14,413.57,912.51,449.7,846.91,470.81z M368.94,109.96
				c-41.99,7.08-82.21,15.54-121.34,28.49c-68.23,22.58-148.2,60.5-176.21,122.39c-13.19,29.16-8.13,64.19,6.33,87.58
				c36.07,58.35,121.54,96.19,201.53,118.17c218.97,60.18,516.74,39.32,674.22-58.03c33.47-20.69,63.81-45.61,75.97-84.41
				c8.24-26.28,3.47-51.12-6.33-69.64c-18.23-34.43-53.77-59.14-89.68-79.13C826.5,115.84,671.61,88.36,506.11,96.24
				C454.72,98.69,412.33,102.64,368.94,109.96z"/>
		</g>
	</g>
	<g>
		<path d="M855.03,513.17v-29.8h21.93v2.64v2.66h-15.71v6.32h14.57v2.55v2.57h-14.57v7.76h16.4v2.63v2.66H855.03z"/>
		<path d="M898.86,492.31c-0.11-1.42-0.73-2.54-1.86-3.38c-1.14-0.83-2.61-1.25-4.44-1.25c-1.58,0-2.82,0.35-3.71,1.04
			c-0.89,0.7-1.34,1.67-1.34,2.91c0,0.89,0.47,1.58,1.4,2.07c0.92,0.49,2.87,1.06,5.86,1.72c4.34,0.97,7.23,2.09,8.69,3.36
			c1.46,1.26,2.19,3.28,2.19,6.06c0,2.8-1.1,5.02-3.3,6.66c-2.2,1.64-5.18,2.46-8.94,2.46c-3.77,0-6.71-0.87-8.84-2.61
			c-2.12-1.74-3.26-4.22-3.4-7.44h6c0.07,1.58,0.64,2.8,1.72,3.65c1.08,0.85,2.59,1.28,4.52,1.28c1.99,0,3.54-0.32,4.65-0.96
			c1.12-0.64,1.67-1.53,1.67-2.67c0-1.12-0.4-1.95-1.21-2.47c-0.78-0.53-2.46-1.07-5.02-1.64c-4.73-1.05-7.89-2.2-9.48-3.43
			c-1.58-1.22-2.37-3.11-2.37-5.7c0-2.89,1.04-5.19,3.14-6.88c2.09-1.7,4.92-2.54,8.49-2.54c3.34,0,6.05,0.88,8.15,2.63
			c2.09,1.76,3.25,4.13,3.49,7.12H898.86z"/>
		<path d="M916.83,488.67h-9v-2.64v-2.66h24.22v2.64v2.66h-9v24.51h-3.1h-3.12V488.67z"/>
		<path d="M935.26,507.13h6.22v6.04h-6.22V507.13z"/>
		<path d="M965.62,492.8h-7.09v-4.15c1.81,0.09,3.43-0.3,4.86-1.2c1.45-0.89,2.54-2.17,3.29-3.83h4.76v29.55h-2.9h-2.92V492.8z"/>
		<path d="M989.19,513.92c-2.47,0-4.5-0.71-6.07-2.13c-1.57-1.42-2.42-3.28-2.52-5.59h5.74c-0.01,0.92,0.26,1.66,0.82,2.21
			c0.56,0.55,1.31,0.83,2.24,0.83h0.29c1.73,0.01,3.01-0.82,3.85-2.49c0.65-1.31,1.05-3.24,1.21-5.78
			c-1.61,1.66-3.53,2.49-5.76,2.49c-2.63,0-4.79-0.9-6.48-2.7c-1.68-1.8-2.53-4.11-2.53-6.94c0-3,0.95-5.45,2.86-7.35
			c1.91-1.9,4.36-2.86,7.36-2.86c3.34,0,5.87,1.25,7.61,3.74c1.74,2.49,2.6,6.13,2.6,10.93c0,5.28-0.96,9.25-2.88,11.91
			c-1.79,2.5-4.37,3.75-7.74,3.75L989.19,513.92z M994.63,493.68c0-1.55-0.42-2.84-1.26-3.86c-0.84-1.02-1.89-1.54-3.16-1.54
			c-1.45,0-2.54,0.46-3.29,1.38c-0.75,0.92-1.12,2.26-1.12,4.03c0,1.54,0.41,2.78,1.22,3.71c0.81,0.94,1.88,1.41,3.2,1.41
			c1.32,0,2.39-0.47,3.2-1.42C994.22,496.45,994.63,495.22,994.63,493.68z"/>
		<path d="M1012.28,513.92c-2.47,0-4.5-0.71-6.07-2.13c-1.58-1.42-2.42-3.28-2.52-5.59h5.74c-0.01,0.92,0.26,1.66,0.82,2.21
			c0.56,0.55,1.31,0.83,2.24,0.83h0.28c1.73,0.01,3.01-0.82,3.85-2.49c0.65-1.31,1.06-3.24,1.22-5.78
			c-1.61,1.66-3.53,2.49-5.76,2.49c-2.64,0-4.79-0.9-6.48-2.7c-1.68-1.8-2.52-4.11-2.52-6.94c0-3,0.95-5.45,2.86-7.35
			c1.91-1.9,4.36-2.86,7.36-2.86c3.34,0,5.87,1.25,7.61,3.74c1.74,2.49,2.61,6.13,2.61,10.93c0,5.28-0.96,9.25-2.88,11.91
			c-1.78,2.5-4.36,3.75-7.74,3.75L1012.28,513.92z M1017.72,493.68c0-1.55-0.42-2.84-1.26-3.86c-0.84-1.02-1.89-1.54-3.16-1.54
			c-1.45,0-2.54,0.46-3.29,1.38c-0.75,0.92-1.12,2.26-1.12,4.03c0,1.54,0.4,2.78,1.22,3.71c0.81,0.94,1.88,1.41,3.2,1.41
			c1.32,0,2.39-0.47,3.2-1.42C1017.31,496.45,1017.72,495.22,1017.72,493.68z"/>
		<path d="M1039.67,492.23c0-1.15-0.33-2.08-0.99-2.79c-0.66-0.71-1.54-1.06-2.64-1.06c-1.27,0-2.25,0.4-2.95,1.21
			c-0.7,0.8-1.06,1.95-1.09,3.44h-5.35c0.04-3.01,0.91-5.33,2.61-6.96c1.7-1.63,4.08-2.44,7.17-2.44c2.65,0,4.82,0.77,6.51,2.31
			c1.69,1.54,2.53,3.52,2.53,5.94c0,2.09-0.88,3.81-2.63,5.15l-0.79,0.53c0.68,0.26,1.27,0.59,1.78,1.01
			c1.69,1.31,2.54,3.28,2.54,5.92c0,2.9-0.92,5.21-2.75,6.91c-1.83,1.7-4.3,2.55-7.41,2.55c-3.2,0-5.68-0.84-7.45-2.52
			c-1.76-1.68-2.66-4.08-2.71-7.19h5.65c0.03,1.66,0.4,2.93,1.12,3.8c0.72,0.87,1.77,1.31,3.13,1.31c1.32,0,2.39-0.44,3.2-1.32
			c0.81-0.88,1.22-2.03,1.22-3.47c0-1.26-0.41-2.27-1.22-3.04c-0.72-0.66-1.62-1.03-2.71-1.11c-0.61-0.04-1.17-0.06-1.69-0.07
			c-0.52-0.01-0.86,0.01-1,0.05v-4.3c0.16,0.03,0.51,0.03,1.03,0.01c0.53-0.02,1.09-0.06,1.68-0.13c0.92-0.11,1.65-0.43,2.19-0.95
			C1039.33,494.36,1039.67,493.44,1039.67,492.23z"/>
	</g>
</g>
</svg>
